<?xml version='1.0' encoding='utf-8'?>
<svg xmlns="http://www.w3.org/2000/svg" version="1.0" id="Capa_1" x="0px" y="0px" viewBox="0 0 2551.15 2551.15" style="enable-background:new 0 0 2551.15 2551.15;"> <style type="text/css"> .st0{fill:#DFB196;} .st1{fill:#5490A0;} .st2{fill:#88CCCD;} .st3{fill:#468393;} </style> <g> <path class="st0" d="M2244.73,1924.88c-68.07-51.14-125.12-85.07-192.39-58.36c-97.12,38.56-23.69,134.95,23.69,100.68 c0,0-23.73-33.31,18.95-32.13c67.97,1.88,49.75,96.74-66.33,124.41l-0.32-0.02c0,0-52.69,20.21-163.45-55.69 c-119.72-82.04-194.25-171.36-291.37-132.81c-97.12,38.56-23.69,134.95,23.69,100.68c0,0-23.73-33.31,18.95-32.13 c67.97,1.88,49.75,96.74-66.33,124.41c0,0-41.04,23.39-159.48-60.15s-194.25-171.36-291.37-132.81s-23.69,134.95,23.69,100.68 c0,0-23.73-33.31,18.95-32.13c67.97,1.88,49.75,96.74-66.33,124.41l-0.32-0.02c0,0-53.16,17.5-163.45-55.69 c-121.1-80.36-194.25-171.36-291.37-132.81s-23.69,134.95,23.69,100.68c0,0-23.73-33.31,18.95-32.13 c67.97,1.88,49.75,96.74-66.33,124.41c0,0-40.51,11.53-132.05-49.72l0.08-0.12l-333.75-429.2l2192.62,178.99l-78.73,156.74"/> <g> <path class="st1" d="M1428.4,1619.14c0,0-283.4-812.91-59.66-1581.07c0,0-984.44,216.28-738.33,1469.21 C630.4,1507.27,757.19,1678.8,1428.4,1619.14z"/> <path class="st2" d="M1325.67,484.69c0,0,378.67,933.09,691.9,1134.45c0,0-322.31,132.81-590.8-76.01 C1426.78,1543.13,1243.64,857.58,1325.67,484.69z"/> </g> </g> <g> <path class="st3" d="M363.13,2150.61c0.19-2.85,1.28-5.27,3.28-7.26s4.51-2.99,7.55-2.99h0.28c3.04,0,5.55,1.09,7.55,3.28 c1.99,2.19,2.89,4.8,2.71,7.83l-9.4,322.43c-0.19,3.04-1.33,5.6-3.42,7.69c-2.09,2.09-4.65,3.04-7.69,2.85 c-3.04-0.19-5.55-1.33-7.55-3.42c-1.99-2.09-2.99-4.65-2.99-7.69L363.13,2150.61z M361.14,2081.39c0-4.37,1.47-8.02,4.41-10.97 c2.94-2.94,6.6-4.41,10.97-4.41c4.37,0,8.02,1.47,10.97,4.41c2.94,2.95,4.41,6.6,4.41,10.97c0,4.37-1.47,8.02-4.41,10.97 c-2.95,2.95-6.6,4.42-10.97,4.42c-4.37,0-8.02-1.47-10.97-4.42C362.61,2089.42,361.14,2085.76,361.14,2081.39z"/> <g> <path class="st3" d="M575.33,2229.79c-2.85,13.29-6.93,25.68-12.25,37.17c-5.32,11.49-10.97,21.5-16.95,30.05 c-5.98,8.54-12.01,15.29-18.09,20.22c-6.08,4.94-11.3,7.59-15.67,7.98c-4.94,0-10.4-2.47-16.38-7.41 c-5.98-4.94-11.68-11.82-17.09-20.65c-5.41-8.83-9.92-19.32-13.53-31.47c-3.61-12.15-5.41-25.35-5.41-39.59 c0-12.53,1.09-22.02,3.28-28.48c2.18-6.45,3.56-10.16,4.13-11.11c0.95-1.71,2.23-3.04,3.85-3.99c1.61-0.95,3.46-1.42,5.55-1.42 c3.23,0,5.79,1.09,7.69,3.28c1.9,2.19,2.85,4.61,2.85,7.26c0,1.9-0.38,3.52-1.14,4.84c-0.19,0.38-1.05,2.95-2.56,7.69 c-1.52,4.75-2.28,11.87-2.28,21.36c0,11.21,1.14,21.55,3.42,31.05c2.28,9.5,5.03,17.66,8.26,24.5c3.23,6.84,6.6,12.2,10.11,16.09 c3.51,3.89,6.41,5.84,8.69,5.84c1.52,0,3.75-1.42,6.69-4.27c2.94-2.85,6.07-6.74,9.4-11.68c3.32-4.94,6.74-10.82,10.25-17.66 c3.51-6.84,6.74-14.29,9.68-22.36c2.94-8.07,5.31-16.61,7.12-25.63c1.8-9.02,2.71-18.18,2.71-27.49c0-1.9-0.05-3.75-0.14-5.55 c-0.1-1.8-0.14-3.65-0.14-5.55c0-3.23,1-5.93,2.99-8.12c1.99-2.18,4.6-3.28,7.83-3.28c2.47,0,4.7,0.76,6.69,2.28 c1.99,1.52,3.28,3.61,3.85,6.27c0-0.19,0.38,1.33,1.14,4.56c0.76,3.23,2.04,7.36,3.85,12.39c1.8,5.03,4.08,10.49,6.84,16.38 c2.75,5.89,6.07,11.35,9.97,16.38c3.89,5.03,8.4,9.26,13.53,12.68c5.13,3.42,11.01,5.13,17.66,5.13c3.61,0,6.74-0.76,9.4-2.28 c2.66-1.52,4.84-3.23,6.55-5.13c1.71-1.9,2.99-3.7,3.85-5.41s1.28-2.66,1.28-2.85c0.76-2.09,2.04-3.75,3.85-4.98 c1.8-1.23,3.85-1.85,6.12-1.85c3.04,0,5.6,1.09,7.69,3.28c2.09,2.19,3.13,4.7,3.13,7.55c0,1.33-0.28,2.66-0.85,3.99 c-1.14,2.66-2.8,5.7-4.98,9.11c-2.19,3.42-4.98,6.65-8.4,9.68c-3.42,3.04-7.46,5.55-12.11,7.55c-4.65,1.99-9.83,2.99-15.52,2.99 c-6.65,0-12.82-1.18-18.51-3.56c-5.7-2.37-10.87-5.41-15.52-9.11c-4.65-3.7-8.88-7.88-12.68-12.53 C581.22,2239.24,577.99,2234.54,575.33,2229.79z"/> <path class="st3" d="M873.27,2240.04c-0.76,1.52-2.33,4.7-4.7,9.54c-2.38,4.84-5.41,10.4-9.11,16.66s-8.02,12.82-12.96,19.65 c-4.94,6.84-10.45,13.1-16.52,18.8c-6.08,5.7-12.63,10.4-19.65,14.1c-7.03,3.7-14.43,5.55-22.22,5.55 c-11.02,0-20.27-3.52-27.77-10.54c-7.5-7.02-12.96-15.85-16.38-26.49c-6.46,10.82-14.15,19.42-23.07,25.78 c-8.93,6.36-17.85,9.54-26.77,9.54c-7.03,0-13.39-1.28-19.08-3.85s-10.54-6.17-14.53-10.82c-3.99-4.65-7.08-10.11-9.26-16.38 c-2.19-6.27-3.28-13.1-3.28-20.51c0-14.81,2.51-27.86,7.55-39.16c5.03-11.3,11.44-20.74,19.23-28.34 c7.78-7.59,16.38-13.29,25.78-17.09c9.4-3.8,18.46-5.7,27.2-5.7c5.88,0,11.3,0.81,16.24,2.42c4.94,1.62,9.16,3.37,12.68,5.27 c3.51,1.9,6.22,3.66,8.12,5.27c1.9,1.62,2.94,2.52,3.13,2.71c2.09,2.47,3.13,5.03,3.13,7.69c0,2.85-1.05,5.37-3.13,7.55 c-2.09,2.19-4.56,3.28-7.41,3.28c-3.04,0-5.6-1.04-7.69-3.13c-0.38-0.38-1.24-1.09-2.56-2.14c-1.33-1.04-3.13-2.14-5.41-3.28 c-2.28-1.14-4.98-2.14-8.12-2.99c-3.13-0.85-6.69-1.28-10.68-1.28c-5.89,0-12.15,1.33-18.8,3.99 c-6.65,2.66-12.72,6.79-18.23,12.39c-5.51,5.6-10.11,12.63-13.81,21.08c-3.7,8.45-5.55,18.47-5.55,30.05 c0,3.61,0.38,7.26,1.14,10.97c0.76,3.7,2.09,7.08,3.99,10.11c1.9,3.04,4.46,5.51,7.69,7.41c3.23,1.9,7.21,2.85,11.96,2.85 c3.42,0,7.36-1.14,11.82-3.42c4.46-2.28,8.73-5.79,12.82-10.54c4.08-4.74,7.78-10.73,11.11-17.94c3.32-7.21,5.65-15.76,6.98-25.64 c0.38-2.66,1.61-4.89,3.7-6.69c2.09-1.8,4.56-2.71,7.41-2.71c2.66,0,4.98,1.05,6.98,3.13c1.99,2.09,3.08,4.46,3.28,7.12 c0.19,3.61,0.57,8.69,1.14,15.24c0.57,6.55,1.85,13.06,3.85,19.51c1.99,6.46,4.98,12.06,8.97,16.81 c3.99,4.75,9.49,7.12,16.52,7.12c4.56,0,9.07-1.23,13.53-3.7c4.46-2.47,8.83-5.74,13.1-9.83c4.27-4.08,8.35-8.73,12.25-13.96 c3.89-5.22,7.45-10.49,10.68-15.81c3.23-5.31,6.07-10.44,8.54-15.38c2.47-4.94,4.56-9.21,6.27-12.82c0.95-2.09,2.32-3.7,4.13-4.84 c1.8-1.14,3.75-1.71,5.84-1.71c3.23,0,5.84,1.19,7.83,3.56c1.99,2.38,2.99,4.89,2.99,7.55 C874.12,2237.39,873.84,2238.72,873.27,2240.04z"/> <path class="st3" d="M1039.9,2240.61c-1.14,2.09-3.09,5.89-5.84,11.39c-2.76,5.51-6.46,11.73-11.11,18.66 c-4.65,6.93-10.21,14.1-16.66,21.5c-6.46,7.41-13.86,14.2-22.22,20.37c-8.36,6.17-17.71,11.25-28.06,15.24 c-10.35,3.99-21.6,5.98-33.75,5.98c-10.82,0-20.42-1.95-28.77-5.84c-8.36-3.89-15.48-9.4-21.36-16.52 c-5.89-7.12-10.35-15.52-13.39-25.21c-3.04-9.68-4.56-20.41-4.56-32.19c0-11.39,1.61-22.07,4.84-32.04 c3.23-9.97,7.64-18.66,13.24-26.06c5.6-7.41,12.11-13.24,19.51-17.52s15.28-6.41,23.64-6.41c6.27,0,11.96,1.09,17.09,3.28 c5.13,2.19,9.44,5.08,12.96,8.69c3.51,3.61,6.27,7.6,8.26,11.96c1.99,4.37,2.99,8.74,2.99,13.1c0,4.18-0.52,8.07-1.57,11.68 c-1.05,3.61-2.38,6.79-3.99,9.54c-1.62,2.76-3.47,4.94-5.55,6.55c-2.09,1.62-4.18,2.42-6.27,2.42c-3.23,0-5.84-1.04-7.83-3.13 c-1.99-2.09-2.99-4.65-2.99-7.69c0-1.52,0.33-2.85,1-3.99c0.66-1.14,1.42-2.32,2.28-3.56c0.85-1.23,1.61-2.75,2.28-4.56 c0.66-1.8,1-4.13,1-6.98c0-3.99-1.85-7.59-5.55-10.82c-3.7-3.23-8.4-4.84-14.1-4.84c-5.32,0-10.4,1.62-15.24,4.84 c-4.84,3.23-9.07,7.55-12.68,12.96c-3.61,5.41-6.51,11.78-8.69,19.08c-2.19,7.31-3.28,15.05-3.28,23.21 c0,7.79,0.95,15.19,2.85,22.22c1.9,7.03,4.74,13.24,8.54,18.66c3.8,5.41,8.59,9.73,14.38,12.96c5.79,3.23,12.68,4.84,20.65,4.84 c10.25,0,19.75-1.85,28.48-5.55c8.73-3.7,16.71-8.4,23.93-14.1c7.21-5.7,13.57-11.91,19.08-18.66c5.5-6.74,10.2-13.1,14.1-19.08 c3.89-5.98,6.93-11.2,9.11-15.67c2.18-4.46,3.46-7.26,3.85-8.4c0.76-1.9,2.04-3.37,3.85-4.41c1.8-1.04,3.75-1.57,5.84-1.57 c3.23,0,5.84,1.14,7.83,3.42c1.99,2.28,2.99,4.84,2.99,7.69C1041.03,2237.19,1040.65,2238.72,1039.9,2240.61z"/> <path class="st3" d="M1240.7,2240.04c-0.76,1.52-2.33,4.7-4.7,9.54c-2.38,4.84-5.41,10.4-9.11,16.66 c-3.7,6.27-8.02,12.82-12.96,19.65c-4.94,6.84-10.45,13.1-16.52,18.8c-6.08,5.7-12.63,10.4-19.65,14.1 c-7.03,3.7-14.43,5.55-22.22,5.55c-11.02,0-20.27-3.52-27.77-10.54c-7.5-7.02-12.96-15.85-16.38-26.49 c-6.46,10.82-14.15,19.42-23.07,25.78c-8.93,6.36-17.85,9.54-26.77,9.54c-7.03,0-13.39-1.28-19.08-3.85s-10.54-6.17-14.53-10.82 c-3.99-4.65-7.08-10.11-9.26-16.38c-2.19-6.27-3.28-13.1-3.28-20.51c0-14.81,2.51-27.86,7.55-39.16 c5.03-11.3,11.44-20.74,19.23-28.34c7.78-7.59,16.38-13.29,25.78-17.09c9.4-3.8,18.46-5.7,27.2-5.7c5.88,0,11.3,0.81,16.24,2.42 c4.94,1.62,9.16,3.37,12.68,5.27c3.51,1.9,6.22,3.66,8.12,5.27c1.9,1.62,2.94,2.52,3.13,2.71c2.09,2.47,3.13,5.03,3.13,7.69 c0,2.85-1.05,5.37-3.13,7.55c-2.09,2.19-4.56,3.28-7.41,3.28c-3.04,0-5.6-1.04-7.69-3.13c-0.38-0.38-1.24-1.09-2.56-2.14 c-1.33-1.04-3.13-2.14-5.41-3.28c-2.28-1.14-4.98-2.14-8.12-2.99s-6.69-1.28-10.68-1.28c-5.89,0-12.15,1.33-18.8,3.99 c-6.65,2.66-12.72,6.79-18.23,12.39c-5.51,5.6-10.11,12.63-13.81,21.08c-3.7,8.45-5.55,18.47-5.55,30.05 c0,3.61,0.38,7.26,1.14,10.97c0.76,3.7,2.09,7.08,3.99,10.11c1.9,3.04,4.46,5.51,7.69,7.41c3.23,1.9,7.21,2.85,11.96,2.85 c3.42,0,7.36-1.14,11.82-3.42c4.46-2.28,8.73-5.79,12.82-10.54c4.08-4.74,7.78-10.73,11.11-17.94c3.32-7.21,5.65-15.76,6.98-25.64 c0.38-2.66,1.61-4.89,3.7-6.69c2.09-1.8,4.56-2.71,7.41-2.71c2.66,0,4.98,1.05,6.98,3.13c1.99,2.09,3.08,4.46,3.28,7.12 c0.19,3.61,0.57,8.69,1.14,15.24c0.57,6.55,1.85,13.06,3.85,19.51c1.99,6.46,4.98,12.06,8.97,16.81 c3.99,4.75,9.49,7.12,16.52,7.12c4.56,0,9.07-1.23,13.53-3.7c4.46-2.47,8.83-5.74,13.1-9.83c4.27-4.08,8.35-8.73,12.25-13.96 c3.89-5.22,7.45-10.49,10.68-15.81c3.23-5.31,6.07-10.44,8.55-15.38c2.47-4.94,4.56-9.21,6.27-12.82c0.95-2.09,2.32-3.7,4.13-4.84 c1.8-1.14,3.75-1.71,5.84-1.71c3.23,0,5.84,1.19,7.83,3.56c1.99,2.38,2.99,4.89,2.99,7.55 C1241.56,2237.39,1241.27,2238.72,1240.7,2240.04z"/> <path class="st3" d="M1407.33,2240.61c-1.14,2.09-3.09,5.89-5.84,11.39c-2.76,5.51-6.46,11.73-11.11,18.66 c-4.65,6.93-10.21,14.1-16.66,21.5c-6.46,7.41-13.86,14.2-22.22,20.37c-8.36,6.17-17.71,11.25-28.06,15.24 c-10.35,3.99-21.6,5.98-33.75,5.98c-10.82,0-20.42-1.95-28.77-5.84c-8.36-3.89-15.48-9.4-21.36-16.52 c-5.89-7.12-10.35-15.52-13.39-25.21c-3.04-9.68-4.56-20.41-4.56-32.19c0-11.39,1.61-22.07,4.84-32.04 c3.23-9.97,7.64-18.66,13.24-26.06c5.6-7.41,12.11-13.24,19.51-17.52s15.28-6.41,23.64-6.41c6.27,0,11.96,1.09,17.09,3.28 c5.13,2.19,9.44,5.08,12.96,8.69c3.51,3.61,6.27,7.6,8.26,11.96c1.99,4.37,2.99,8.74,2.99,13.1c0,4.18-0.52,8.07-1.57,11.68 c-1.05,3.61-2.38,6.79-3.99,9.54c-1.62,2.76-3.47,4.94-5.55,6.55c-2.09,1.62-4.18,2.42-6.27,2.42c-3.23,0-5.84-1.04-7.83-3.13 c-1.99-2.09-2.99-4.65-2.99-7.69c0-1.52,0.33-2.85,1-3.99c0.66-1.14,1.42-2.32,2.28-3.56c0.85-1.23,1.61-2.75,2.28-4.56 c0.66-1.8,1-4.13,1-6.98c0-3.99-1.85-7.59-5.55-10.82c-3.7-3.23-8.4-4.84-14.1-4.84c-5.32,0-10.4,1.62-15.24,4.84 c-4.84,3.23-9.07,7.55-12.68,12.96c-3.61,5.41-6.51,11.78-8.69,19.08c-2.19,7.31-3.28,15.05-3.28,23.21 c0,7.79,0.95,15.19,2.85,22.22c1.9,7.03,4.74,13.24,8.54,18.66c3.8,5.41,8.59,9.73,14.38,12.96c5.79,3.23,12.68,4.84,20.65,4.84 c10.25,0,19.75-1.85,28.48-5.55c8.73-3.7,16.71-8.4,23.93-14.1c7.21-5.7,13.57-11.91,19.08-18.66c5.5-6.74,10.2-13.1,14.1-19.08 c3.89-5.98,6.93-11.2,9.11-15.67c2.18-4.46,3.46-7.26,3.85-8.4c0.76-1.9,2.04-3.37,3.85-4.41c1.8-1.04,3.75-1.57,5.84-1.57 c3.23,0,5.84,1.14,7.83,3.42c1.99,2.28,2.99,4.84,2.99,7.69C1408.47,2237.19,1408.09,2238.72,1407.33,2240.61z"/> <path class="st3" d="M1434.39,2095.92c0,7.22-2.52,13.34-7.55,18.37c-5.03,5.03-11.16,7.55-18.37,7.55 c-7.22,0-13.34-2.51-18.37-7.55c-5.03-5.03-7.55-11.15-7.55-18.37c0-3.61,0.66-6.98,1.99-10.11c1.33-3.13,3.18-5.88,5.55-8.26 c2.37-2.37,5.13-4.22,8.26-5.55c3.13-1.33,6.5-1.99,10.11-1.99c3.61,0,6.98,0.67,10.11,1.99c3.13,1.33,5.88,3.18,8.26,5.55 c2.37,2.38,4.22,5.13,5.55,8.26C1433.72,2088.94,1434.39,2092.31,1434.39,2095.92z M1388.25,2262.83 c0-27.34,1.71-54.59,5.13-81.75c0.38-2.66,1.57-4.98,3.56-6.98c1.99-1.99,4.6-2.99,7.83-2.99c2.85,0,5.22,1.09,7.12,3.28 c1.9,2.19,2.85,4.7,2.85,7.55c0,1.14-0.24,4.56-0.71,10.25c-0.48,5.7-1.05,12.49-1.71,20.37c-0.67,7.88-1.24,16.24-1.71,25.07 c-0.48,8.83-0.71,16.95-0.71,24.35c0,10.07,1,18.18,2.99,24.35c1.99,6.17,4.56,10.97,7.69,14.38c3.13,3.42,6.45,5.7,9.97,6.84 c3.51,1.14,6.88,1.71,10.11,1.71c5.31,0,10.82-1.9,16.52-5.7c5.7-3.8,11.54-9.11,17.52-15.95c5.98-6.84,12.01-15.05,18.09-24.64 c6.07-9.59,12.06-20.27,17.94-32.04c0.95-1.9,2.28-3.37,3.99-4.41c1.71-1.04,3.61-1.57,5.7-1.57c3.04,0,5.55,1.14,7.55,3.42 c1.99,2.28,2.99,4.75,2.99,7.41c0,1.9-0.38,3.52-1.14,4.84c-2.28,4.37-5.13,9.68-8.55,15.95s-7.31,12.72-11.68,19.37 c-4.37,6.65-9.16,13.24-14.38,19.8c-5.22,6.55-10.78,12.44-16.66,17.66c-5.89,5.22-12.06,9.44-18.51,12.68 c-6.46,3.23-13.01,4.84-19.65,4.84c-8.54,0-16.05-1.81-22.5-5.41c-6.46-3.61-11.92-8.45-16.38-14.53 c-4.46-6.07-7.79-13.24-9.97-21.5C1389.34,2281.2,1388.25,2272.33,1388.25,2262.83z M1418.44,2095.92c0-2.66-1-4.98-2.99-6.98 c-1.99-1.99-4.32-2.99-6.98-2.99c-2.66,0-4.94,1-6.84,2.99c-1.9,1.99-2.85,4.32-2.85,6.98c0,2.66,0.95,4.94,2.85,6.84 c1.9,1.9,4.17,2.85,6.84,2.85c2.66,0,4.98-0.95,6.98-2.85C1417.44,2100.86,1418.44,2098.58,1418.44,2095.92z"/> <path class="st3" d="M1641.75,2288.18c-4.75,0-8.93-0.38-12.53-1.14c-2.85,5.7-6.27,10.97-10.25,15.81 c-3.99,4.84-8.59,9.07-13.81,12.68c-5.22,3.61-11.06,6.45-17.52,8.54c-6.46,2.09-13.48,3.13-21.08,3.13 c-8.93,0-17.09-1.57-24.5-4.7c-7.41-3.13-13.86-7.5-19.37-13.1c-5.51-5.6-9.78-12.34-12.82-20.22 c-3.04-7.88-4.56-16.57-4.56-26.06c0-12.15,2.18-22.74,6.55-31.76c4.37-9.02,9.4-16.52,15.1-22.5s11.39-10.44,17.09-13.39 c5.7-2.94,9.97-4.41,12.82-4.41c3.23,0,5.65,0.85,7.26,2.56c1.61,1.71,2.42,3.99,2.42,6.84c0,3.23-1,5.65-2.99,7.26 c-1.99,1.62-4.51,3.18-7.55,4.7c-3.04,1.52-6.27,3.66-9.68,6.41c-3.42,2.76-6.6,6.22-9.54,10.4c-2.95,4.18-5.37,9.11-7.26,14.81 c-1.9,5.7-2.85,12.06-2.85,19.08c0,6.27,0.95,12.11,2.85,17.52c1.9,5.41,4.65,10.07,8.26,13.96c3.61,3.89,7.88,6.93,12.82,9.11 c4.94,2.19,10.44,3.28,16.52,3.28c10.82,0,19.8-2.51,26.92-7.55c7.12-5.03,12.58-11.44,16.38-19.23 c-11.21-5.88-20.42-14.24-27.63-25.07c-7.22-10.82-10.82-22.97-10.82-36.46c0-10.82,2.61-19.65,7.83-26.49 c5.22-6.84,12.11-10.25,20.65-10.25c5.13,0,9.97,1.24,14.53,3.7c4.56,2.47,8.59,6.36,12.11,11.68c3.51,5.32,6.31,12.15,8.4,20.51 c2.09,8.36,3.13,18.33,3.13,29.91c0,6.08-0.76,12.44-2.28,19.08c1.14,0.19,2.28,0.28,3.42,0.28c1.14,0,2.37,0,3.7,0 c6.45,0,12.25-0.76,17.37-2.28c5.13-1.52,9.78-3.8,13.96-6.84c4.17-3.04,7.93-6.93,11.25-11.68c3.32-4.74,6.5-10.25,9.54-16.52 c0.57-1.14,1.8-2.23,3.7-3.28c1.9-1.04,3.8-1.57,5.7-1.57c2.47,0,4.79,1,6.98,2.99c2.18,1.99,3.28,4.61,3.28,7.83 c0,1.52-0.38,3.18-1.14,4.98c-0.76,1.81-1.52,3.47-2.28,4.98c-3.23,5.7-6.98,11.16-11.25,16.38c-4.27,5.22-9.31,9.78-15.1,13.67 c-5.79,3.89-12.3,6.98-19.51,9.26C1658.74,2287.33,1650.67,2288.37,1641.75,2288.18z M1593.04,2216.4c0,3.61,0.47,7.41,1.42,11.39 c0.95,3.99,2.42,7.93,4.41,11.82c1.99,3.89,4.46,7.6,7.41,11.11c2.94,3.52,6.41,6.51,10.4,8.97c0.57-3.99,0.85-7.88,0.85-11.68 c0-5.13-0.38-10.35-1.14-15.67c-0.76-5.31-1.85-10.2-3.28-14.67c-1.42-4.46-3.18-8.07-5.27-10.82c-2.09-2.75-4.56-4.13-7.41-4.13 c-1.14,0-2.66,0.85-4.56,2.56C1593.99,2207,1593.04,2210.71,1593.04,2216.4z"/> <path class="st3" d="M1757.96,2293.88c3.04-6.27,6.55-13.15,10.54-20.65c3.99-7.5,8.26-15.1,12.82-22.79 c4.56-7.69,9.35-15.33,14.38-22.93c5.03-7.59,10.3-14.81,15.81-21.65c5.5-6.64,11.06-11.44,16.66-14.38 c5.6-2.94,10.87-4.41,15.81-4.41c9.87,0,17.18,3.61,21.93,10.82c4.74,7.22,7.12,16.14,7.12,26.77c0,2.47-0.14,5.46-0.43,8.97 c-0.28,3.52-0.57,7.26-0.85,11.25c-0.28,3.99-0.57,8.02-0.85,12.11c-0.28,4.09-0.43,7.93-0.43,11.54c0,4.56,0.24,8.93,0.71,13.1 c0.47,4.18,1.37,7.83,2.71,10.97c1.33,3.13,3.23,5.6,5.7,7.41c2.47,1.81,5.7,2.71,9.68,2.71c7.21,0,14.24-2.8,21.08-8.4 c6.84-5.6,13.15-12.25,18.94-19.94c5.79-7.69,10.82-15.52,15.1-23.5c4.27-7.98,7.45-14.43,9.54-19.37 c0.95-2.09,2.32-3.7,4.13-4.84c1.8-1.14,3.75-1.71,5.84-1.71c3.23,0,5.84,1.19,7.83,3.56c1.99,2.38,2.99,4.89,2.99,7.55 c0,1.33-0.28,2.66-0.85,3.99c-0.76,1.52-2.28,4.65-4.56,9.4c-2.28,4.75-5.27,10.21-8.97,16.38c-3.7,6.17-8.02,12.72-12.96,19.65 c-4.94,6.93-10.4,13.24-16.38,18.94c-5.98,5.7-12.44,10.45-19.37,14.24c-6.93,3.8-14.2,5.7-21.79,5.7 c-8.54,0-15.48-1.66-20.79-4.98c-5.32-3.32-9.5-7.69-12.53-13.1c-3.04-5.41-5.08-11.39-6.12-17.94 c-1.05-6.55-1.57-13.15-1.57-19.8c0-2.85,0.14-6.07,0.43-9.68c0.28-3.61,0.66-7.41,1.14-11.39c0.47-3.99,0.85-7.98,1.14-11.96 c0.28-3.99,0.43-7.78,0.43-11.39c0-6.07-0.95-10.2-2.85-12.39c-1.9-2.18-3.61-3.28-5.13-3.28c-3.04,0-6.51,1.76-10.4,5.27 c-3.89,3.52-7.98,8.12-12.25,13.81c-4.27,5.7-8.64,12.11-13.1,19.23c-4.46,7.12-8.64,14.2-12.53,21.22 c-3.89,7.03-7.5,13.72-10.82,20.08c-3.33,6.36-5.94,11.63-7.83,15.81c-3.8,7.98-7.6,13.34-11.39,16.09 c-3.8,2.75-7.69,4.13-11.68,4.13c-5.51,0-9.92-1.66-13.24-4.98c-3.33-3.32-4.98-8.02-4.98-14.1c0-1.33,0.19-3.94,0.57-7.83 c0.38-3.89,0.85-8.54,1.42-13.96s1.14-11.25,1.71-17.52c0.57-6.27,1.14-12.48,1.71-18.66c0.57-6.17,1.04-11.91,1.42-17.23 c0.38-5.31,0.57-9.78,0.57-13.39c0-4.74-0.19-9.3-0.57-13.67c-0.38-4.37-1.14-7.02-2.28-7.98c-1.71,0.57-4.75,4.13-9.11,10.68 c-4.37,6.55-9.97,18.09-16.81,34.61c-0.95,2.09-2.38,3.7-4.27,4.84c-1.9,1.14-3.89,1.71-5.98,1.71c-3.23,0-5.79-1.09-7.69-3.28 c-1.9-2.18-2.85-4.7-2.85-7.55c0-1.33,0.28-2.75,0.85-4.27c8.55-20.32,16.57-35.27,24.07-44.86c7.5-9.59,14.95-14.38,22.36-14.38 c4.37,0,8.07,1.09,11.11,3.28c3.04,2.19,5.46,5.08,7.26,8.69c1.8,3.61,3.13,7.6,3.99,11.96c0.85,4.37,1.28,8.83,1.28,13.39 c0,3.42-0.24,8.74-0.71,15.95c-0.48,7.22-1.09,14.95-1.85,23.21c-0.76,8.26-1.47,16.48-2.14,24.64 C1759.14,2281.54,1758.53,2288.37,1757.96,2293.88z"/> <path class="st3" d="M1988.39,2288.18c3.99,5.51,9.11,9.92,15.38,13.24c6.27,3.33,13.96,4.98,23.07,4.98 c9.3,0,17.75-2.23,25.35-6.69c7.59-4.46,14.53-10.3,20.79-17.52c6.27-7.21,11.87-15.28,16.81-24.21 c4.94-8.92,9.4-17.85,13.39-26.77c0.95-2.09,2.28-3.65,3.99-4.7c1.71-1.04,3.61-1.57,5.7-1.57c3.23,0,5.84,1.14,7.83,3.42 c1.99,2.28,2.99,4.75,2.99,7.41c0,0.95-0.1,1.76-0.28,2.42c-0.19,0.67-0.48,1.38-0.85,2.14c-13.1,28.87-27.39,50.61-42.87,65.23 c-15.48,14.62-33,22.12-52.55,22.5c-12.53,0-23.36-2.42-32.47-7.26c-9.11-4.84-16.62-11.11-22.5-18.8 c-5.89-7.69-10.25-16.38-13.1-26.06c-2.85-9.68-4.27-19.37-4.27-29.05s1.18-18.61,3.56-26.77c2.37-8.16,5.79-15.28,10.25-21.36 c4.46-6.07,9.78-10.82,15.95-14.24c6.17-3.42,12.96-5.13,20.37-5.13c4.37,0,8.69,0.9,12.96,2.71c4.27,1.81,8.12,4.37,11.54,7.69 c3.42,3.33,6.17,7.36,8.26,12.11c2.09,4.75,3.13,10.16,3.13,16.24c0,7.79-1.33,15.1-3.99,21.93c-2.66,6.84-6.32,13.2-10.97,19.08 c-4.65,5.89-10.21,11.3-16.66,16.24C2002.72,2280.3,1995.79,2284.57,1988.39,2288.18z M1979.84,2269.67 c5.88-2.47,11.25-5.6,16.09-9.4c4.84-3.8,8.97-7.98,12.39-12.53c3.42-4.56,6.07-9.35,7.98-14.38c1.9-5.03,2.85-10.11,2.85-15.24 c0-5.7-1.42-10.01-4.27-12.96c-2.85-2.94-6.17-4.41-9.97-4.41c-5.13,0-9.5,1.42-13.1,4.27c-3.61,2.85-6.55,6.55-8.83,11.11 c-2.28,4.56-3.94,9.64-4.98,15.24c-1.05,5.6-1.57,11.16-1.57,16.66c0,3.42,0.33,7.03,1,10.82 C1978.08,2262.64,1978.89,2266.25,1979.84,2269.67z"/> <path class="st3" d="M2134.79,2214.12c-1.14,3.04-2.52,6.46-4.13,10.25c-1.62,3.8-3.47,7.79-5.55,11.96 c-1.71,3.23-3.47,5.75-5.27,7.55c-1.81,1.81-4.13,2.71-6.98,2.71c-3.23,0-5.79-1-7.69-2.99c-1.9-1.99-2.85-4.32-2.85-6.98 c0-0.95,0.09-1.75,0.28-2.42c0.19-0.66,0.66-1.75,1.42-3.28c4.94-9.49,8.59-17.8,10.97-24.92c2.37-7.12,4.32-14.57,5.84-22.36 c-1.33-4.37-2.28-8.07-2.85-11.11c-0.57-3.04-0.85-6.17-0.85-9.4c0-6.27,1.33-11.34,3.99-15.24c2.66-3.89,6.36-5.84,11.11-5.84 c4.37,0,7.83,1.9,10.4,5.7c2.56,3.8,3.85,8.45,3.85,13.96c0,3.04-0.28,6.08-0.85,9.11c-0.57,3.04-1.33,6.84-2.28,11.39 c4.37,10.82,8.73,20.42,13.1,28.77c4.37,8.36,8.26,16,11.68,22.93c3.42,6.93,6.22,13.44,8.4,19.51 c2.18,6.08,3.28,12.15,3.28,18.23c0,7.98-1.62,15.57-4.84,22.79c-3.23,7.22-8.55,13.29-15.95,18.23c0.95,0.19,1.9,0.28,2.85,0.28 c0.95,0,1.9,0,2.85,0c10.82,0,20.79-2.47,29.91-7.41c9.11-4.94,17.33-11.34,24.64-19.23c7.31-7.88,13.81-16.61,19.51-26.2 c5.7-9.59,10.63-19.13,14.81-28.63c1.9-4.37,4.56-6.55,7.98-6.55c3.23,0,5.74,1.14,7.55,3.42c1.8,2.28,2.71,4.75,2.71,7.41 c0,1.52-0.28,2.95-0.85,4.27c-2.09,5.13-4.8,10.97-8.12,17.52c-3.33,6.55-7.31,13.29-11.96,20.22 c-4.65,6.93-10.02,13.72-16.09,20.37c-6.08,6.65-12.87,12.58-20.37,17.8c-7.5,5.22-15.72,9.4-24.64,12.53 c-8.93,3.13-18.71,4.7-29.34,4.7c-12.72,0-24.55-2.23-35.46-6.69c-10.92-4.46-19.8-11.82-26.63-22.07 c-1.14-1.71-1.71-3.51-1.71-5.41c0-2.85,1.09-5.36,3.28-7.55c2.18-2.18,4.7-3.28,7.55-3.28c3.04,0,5.6,1.05,7.69,3.13 c0.19,0.38,0.85,1,1.99,1.85s2.51,1.81,4.13,2.85c1.61,1.05,3.51,1.95,5.7,2.71c2.18,0.76,4.42,1.14,6.69,1.14 c4.56,0,8.4-0.95,11.54-2.85c3.13-1.9,5.65-4.22,7.55-6.98c1.9-2.75,3.28-5.7,4.13-8.83c0.85-3.13,1.28-5.84,1.28-8.12 c0-4.74-0.76-9.49-2.28-14.24c-1.52-4.74-3.47-9.49-5.84-14.24c-2.38-4.74-4.94-9.63-7.69-14.67 C2139.58,2224.9,2137.07,2219.63,2134.79,2214.12z"/> </g> <path class="st3" d="M2328.19,2471.76c0,4.37-1.47,8.02-4.42,10.97c-2.95,2.94-6.6,4.41-10.97,4.41c-4.37,0-8.02-1.47-10.97-4.41 c-2.95-2.95-4.41-6.6-4.41-10.97c0-4.37,1.47-8.02,4.41-10.97c2.94-2.94,6.6-4.41,10.97-4.41c4.37,0,8.02,1.47,10.97,4.41 C2326.72,2463.74,2328.19,2467.4,2328.19,2471.76z M2326.2,2402.55c-0.19,2.85-1.28,5.27-3.28,7.26c-1.99,1.99-4.51,2.99-7.55,2.99 h-0.28c-3.04,0-5.55-1.09-7.55-3.28c-1.99-2.18-2.9-4.79-2.71-7.83l9.4-322.43c0.19-3.04,1.33-5.6,3.42-7.69 c2.09-2.09,4.65-3.04,7.69-2.85c3.04,0.19,5.55,1.33,7.55,3.42c1.99,2.09,2.99,4.65,2.99,7.69L2326.2,2402.55z"/> </g> </svg>