<?xml version="1.0" encoding="UTF-8"?>
<svg viewBox="0 0 219 694" xmlns="http://www.w3.org/2000/svg">
 <defs>
  <filter id="a" x="0" y="0" width="1" height="1">
   <feColorMatrix type="hueRotate" values="0"/>
   <feColorMatrix type="saturate" values="1"/>
   <feColorMatrix values="2 -1 0 0 0 0 2 -1 0 0 -1 0 2 0 0 0 0 0 1 0"/>
  </filter>
 </defs>
 <g transform="translate(-458.5,-51.5)" fill-rule="evenodd" filter="url(#a)">
  <path d="m546 184q6 0 6 1 1 1-6 2-8 0-6-2 1-1 6-1z" fill="#5e729a" stroke="#5e729a"/>
  <path d="m466 662 4-3v9l1 4q1 4 7 8 5 4 14 6l12 3q3 1 4 1t1 1h-5l-4 1h-5q-5 0-13-2h-9l-1 2v7h-1v1q1 0 1 1v1h2v1l1 1v1h-1l-1-1h-1v-1h-1v-1h-1v-1h-1v-1h-1v-1l-4-7q-4-7-4-13-2-6 0-9l2-4v-1h1q0-1 3-3z" fill="#9f5a5f" stroke="#9f5a5f"/>
  <path d="m516 166h1l-1 2q0 2-1 12-1 11-1 12l-1 2-1 3q0 3-1 5 0 3 1 3t1 1l-1 1-1-1q-1 0-1-2-2-1-2-16v-15l4-3q3-4 4-4z" fill="#62718c" stroke="#62718c"/>
  <path d="m529 631 3-13l-1 28q-1 27-2 32-1 6-1 12v5h-4q-3-1-5-2l-2-1h2l1 1h1v-5q1-6 3-25t5-32z" fill="#6c6664" stroke="#6c6664"/>
  <path d="m594 621h1v25q-1 25-1 36-2 10-2 12v1h-4v-1q0-2 1-30v-28q1-1 1-6v-5l1 1 1 2v-4l1-1 1-1v-1z" fill="#acaeb1" stroke="#acaeb1"/>
  <path d="m488 443h8l-6 1q-6 1-6 14 0 14-2 18v12h-2v1l-1-1h-1v-2h-1v-1h-1v-2l-1-1q-1-2 1-18 0-16 2-18 1-2 10-3z" fill="#6d7b92" stroke="#6d7b92"/>
  <path d="m511 730 1-2 18 2q17 2 18 2h2l16 1q16 1 18 2h3q0 1-7 1-8 0-6 1t-8 3q-11 2-10 2 0 1-3 2l-4 1v-1h-3q-3 0-3-1-1 0-13-4l-13-5h-1q-2 0-4-2-2-1-1-2z" fill="#533234" stroke="#533234"/>
  <path d="m536 447l9 2q9 2 9 9v20h1l-1 2q0 2-1 5t-4 2q-3 0-2 6t2 6 1 1 1 2v1h1l1 1h2v1h1v3h-1v-1h-1v-1h-1l-1-1-1-1h-1v-1h-1q0-1-2-1-2-2-6-2-4-2-7-7-2-5-9-6l-7-1v-1h1v-1h2v-2h2v1q0 1 3 1h2v-1q0-1 2-7v-8q-1-2 0-8 0-6-2-8l-2-1v-1h2q3 0 2-1t2-1q4 0 4-1z" fill="#2a3f6b" stroke="#2a3f6b"/>
  <path d="m661 673h1l-2 4q0 4-1 4v1h-1v1h1v1h6l1-1 1-1h1l3-2q3 0 3 1v1l-4 8q-5 8-8 11l-3 3h-1q-1 0-3 2-1 2-2 8 0 5-1 5-2 0-3 2t-4 4q-4 3-17 5-14 4-28 4l-13 1h-3q-2-1-18-2l-16-1 4-1q5-1 6-1h1v-1q1 0 1-3 1-3 0-3-2-1 0-2 2-2 3-5t0-3l-1-1q-1-1 0-1 2-1 2-3t1-2l1-1h1v-1h1v-2h-2l-2-1-3-1h1v-1l11-1q11 0 11-1h2l1-1h9q1 0 1-1v-1h17q10 0 21-5 11-4 15-9l4-6h2q1-1 2 0 1 0 1-1z" fill="#471215" stroke="#471215"/>
  <path d="m598 380v4l-1 2-1 3v5q0 3-2 8-2 6-16 6l-14 1h-2q-1-1-3-2-3-1-1-24l2-23h1v-1h1v-2h1v-1h1v-1h1v-1l5-2q5-2 10-1t9 3 6 5q1 2 3 5v16z" fill="#1f3055" stroke="#1f3055"/>
  <path d="m536 514-2-2 10 1q11 1 13 2l2 1h6l9 1q8 1 9 1h1l2 1 2 1 3 1q2 1 2 21-1 19-1 33t-1 21-1 8q0 2 2 6 2 5 3 8v3h-1v1l-1 1-1 1v4l-1-2-1-1v-2l-1-3-3-6q-4-4-8-7-5-3-16-3-12 0-17 2l-5 2h-1v1h-1v1h-1v1h-1v1h-1v-2l1-1v-1h1v-1h1v-1h1v-1h1v-1l3-2q2-2 3-6 2-4 2-18 0-15-1-26-1-10-1-22-1-11-4-12l-6-4z" fill="#a6a49e" stroke="#a6a49e"/>
  <path d="m638 107v-5h1q1 1 0 8-1 6-5 10-4 3-4 22 0 18 2 19l2 1h-4l-2-1q-2-1-14-2-13-2-14-7v-8q0-2-2-3t-8-2l-5-1-1 1h-1v-2h1l2-1h1l2-1q2-1 4-1t3-3q0-3-1-11-1-9-13-10l-12-1v-1h21q12 0 21 2 8 2 15 4 7 0 9-1t2-6z" fill="#696866" stroke="#696866"/>
  <path d="m592 216h2l1 2q1 2 2 2t1 12 2 19 2 17v17l-1-5-1-6v-8q-2-7-5-11-4-3-13-3-8 0-10 1-2 2-4 7l-2 6-1 4v5h-1v-10q0-10 2-12 1-3 0-17-1-15-8-16l-6-1v-1h8l2-1h3l12-1h15z" fill="#a6a6a2" stroke="#a6a6a2"/>
  <path d="m600 388v-2h1v14q-1 14-3 23t-4 15-4 6q-1 0-8 1h-27v-1h2l3-1 2-1h2q2 0 5-3t3-8v-12q-1-7-2-7l-2-1v-1h-4v-1l14-1q14 0 16-6 2-5 2-8v-4l1 1 1 1 1-1h1v-3z" fill="#97958f" stroke="#97958f"/>
  <path d="m533 445-1-2 5 1q5 0 11 1h27v1h10q10 2 17 2h6l-24 1-25 1v7q-1 7-1 11v3l-1 1-1 2v4h-2v-20q0-7-9-9l-9-2h-1q-1 0-2-2z" fill="#394157" stroke="#394157"/>
  <path d="m652 448h1l1 1v1h1l9 2 9 2h-24l-12-2h-1l-2-1-2-1h5v-1q1 0-1-1l-1-1 5-1h8q3 2 4 2z" fill="#3d3f43" stroke="#3d3f43"/>
  <path d="m588 666 1-30v28q-1 28-1 30v1h1v1h-2q-1 0 1-30z" fill="#667c9e" stroke="#667c9e"/>
  <path d="m519 450h7v1l2 1q2 2 2 8-1 6 0 8v8q-2 6-2 7v1h-2q-3 0-3-1v-1h-2v1l-1 1v1h-5v-1q-1 0-1-2 0-1-2-2h-1v-1q-1-1-1-6t-1-4-1-1l-1-2 2-4q3-5 2-6-1 0 0-1 1 0 1-1t-1-2q-1 0 0-1t8-1z" fill="#7a89a8" stroke="#7a89a8"/>
  <path d="m655 664v2q1 2 1 5v3l-4 6q-4 5-15 9-11 5-21 5h-17v-1l1-1v-1h1v-1h1v-1h1v-1h1l1-1 1-1 10-2q9-3 9-4t9-3q8-2 10-3 1 0 1-1t5-5q4-4 5-4z" fill="#644b42" stroke="#644b42"/>
  <path d="m589 620 1 3v7q0 5-1 6l-1 30q-2 30-1 30v1h-1q0 1-11 1l-11 1h-10q-9-1-14-1t-8-2l-4-1v-5q0-6 1-12 1-5 2-32l1-28v-1q0-1 2-3l1-2h1v-1h1v-1h1v-1h1v-1h1l5-2q5-2 17-2 11 0 16 3 4 3 8 7l3 6z" fill="#1c2b54" stroke="#1c2b54"/>
  <path d="m508 511h16q6 1 8 1h2l2 2 6 4q3 1 4 12 0 12 1 22 1 11 1 26 0 14-2 18-1 4-3 6l-3 2v1h-1v1h-1v1h-1v1h-1v1l-1 1v2l-1 2q-2 2-2 3v1l-3 13q-3 13-5 32t-3 25v5h-1l-1-1h-3q-1 0-4-1h-3q0-1-1-1t-4-1l-12-3q-9-2-14-6-6-4-7-8l-1-4 1-4v-3h1v-5q0-5 5-36t11-68 9-38l4-2h7v-1z" fill="#d1d0cf" stroke="#d1d0cf"/>
  <path d="m563 90h2l-1 1v1q0 1 1 2 1 0 2 2l1 2v1h-1v1h-2q-2 0-5 1l-8 2q-4 2-4 1 0-2-2 0l-2 2h-1v1h-1v1q0 1-1 1h-1v-6l1-1 1-1v-1h1l9-5q9-5 11-5z" fill="#47484a" stroke="#47484a"/>
  <path d="m582 59v-7h3l2 10q1 11 3 14 0 4 1 4v1q-1 0-1 1t-2 0h-2q0-1-2-8-2-8-2-15z" fill="#7a766e" stroke="#7a766e"/>
  <path d="m555 164-2 2-5 1q-4 0-4-2 0-1 2-3h7q4 0 2 2z" fill="#596b91" stroke="#596b91"/>
  <path d="m567 109h3l12 1q12 1 13 10 1 8 1 11-1 3-3 3t-4 1l-2 1h-1l-1 1-1 1q-1 0-1 1h-1q0 1-1 2-1 2-2 9l-1 7h-15q-8-1-10-1-2-1-3-13-2-12 0-19 1-8 2-8 2 0 2-1v-1l2-2q3-2 6-2 2 0 5-1z" fill="#b6b6b5" stroke="#b6b6b5"/>
  <path d="m665 172v-1l3 3q2 2 2 18 0 15-8 22l-8 8q-1 0-4 2l-2 2h-1v1h-1v1h-3l-3-1-2-1h5v-1l1-1v-1l4-3q4-3 8-7 3-3 7-9 3-5 3-18t-1-14z" fill="#424750" stroke="#424750"/>
  <path d="m506 468 1-2 1 2q0 2 1 1t1 4 1 6v1h1q2 1 2 2 0 2 1 2v1h-1q-2-1-5-1-3-1-4-7t1-9z" fill="#62779c" stroke="#62779c"/>
  <path d="m629 447h6l1 1q2 1 1 1v1h-5l2 1 2 1h1l12 2h24l1 1q1 1 2 1h1l-1 18q0 17-5 22l-4 6h-1v1l-3 3-2 2h-1v1q-1 1-6 4t-15 4-15 1q-4 2-18 0h-23q-1 0-9-1l-9-1-1-1v-1h-1v-1h-1v-1h-1v-1h-1v-1h-1v-1h-1q0-1-1-1h-1v-1q0-1-1-1l-1-1q0-1-1-1h-1q0-1-1-3t-2-2-2-6 2-6q3 1 4-2t1-5l1-2h1v-4l1-2 1-1v-3q0-4 1-11v-7l25-1 24-1 8-1q7-1 13 0z" fill="#172036" stroke="#172036"/>
  <path d="m584 138l6 1q6 1 8 2t2 3v8q1 5 14 7 12 1 14 2l2 1h4l14 4q14 4 15 4t1 1h1q0 1 1 1v1h1v13q-1 13-4 18-4 6-7 9-4 4-8 7l-4 3v1l-1 1v1h-7q-2 0-6-1-3-1-13-3-10-4-17-5l-6-1h-17l-12 1v-1h-3l-2-1-2-1h-1q-1 0-5-2-3-2-6-5l-4-3v-1h-1v-1h-1v-4l1-1 1-1 2-1q1 0 1-1t4-2 5-3q1-1 5-3 5-1 6-10 1-8 4-13t4-5v-1h5l1-7q1-7 2-9 1-1 1-2h1q1 0 1-1z" fill="#172037" stroke="#172037"/>
  <path d="m571 157h2v1q-1 0-4 5t-4 13q-1 9-6 10-4 2-5 3-1 2-5 3t-4 2-1 1l-2 1v4h-2v2h1v1h1v1l4 3q3 3 6 5 4 2 5 2h1l2 1 2 1h3v1h-3l-2 1h-8v1h-9q-7-1-9-3-3-2-10-10-7-10-8-11t-2-1h-1l1-2q0-1 1-12 1-10 1-12l1-2 7-3q8-3 16-3 7-2 19-2h12v-1zm-16 7-2 2-5 1q-4 0-4-2 0-1 2-3h7q4 0 2 2zm-9 20q6 0 6 1 1 1-6 2-8 0-6-2 1-1 6-1z" fill="#294172" stroke="#294172"/>
  <path d="m472 692 1-2h9q8 2 13 2h5l4-1h8q3 1 4 1h1l2 1q2 1 5 2h4l4 1q3 2 8 2t14 1h10v1h-1l3 1 2 1h2v2h-1v1h-1l-1 1q-1 0-1 2t-2 3q-1 0 0 1l1 1q1 0 0 3t-3 5q-2 1 0 2 1 0 0 3 0 3-1 3v1h-1q-1 0-6 1l-4 1h-2q-1 0-18-2l-18-2-8-4q-9-2-18-10l-8-7q-1-1-2-1l-1-1v-1h-1q0-1-1-1v-1q-1 0-1-1l-1-1v-1h1v-7z" fill="#971d25" stroke="#971d25"/>
  <path d="m530 443h2l1 2q1 2 2 2h1q0 1-4 1-3 0-2 1t-2 1h-9q-7 0-8 1t0 1q1 1 1 2t-1 1q-1 1 0 1 1 1-2 6l-2 4-1 2q-2 3-1 9t4 7q3 0 5 1h4v1h1q1 0 1-1l6 1q6 2 8 7 3 5 7 7 4 0 6 2 2 0 2 1h1v1h2l1 1h1v1h1v1l1 1h1q1 0 1 1h1v1h1v1h1v1h1v1h1v1h1v1l1 1h-6l-2-1q-2-1-13-2l-10-1h-2q-2 0-8-1h-7v-1h-7l-3-1q-3-1-9-6t-6-6-5-5l-5-5v-11q2-4 2-18 0-13 6-14l6-1h4q3-1 5-1h2l1-1 2-1h10q7 0 8 2 1 0 2 1z" fill="#2e4876" stroke="#2e4876"/>
  <path d="m600 276v-2l1 6 1 5-1 10q-1 10-1 13-2 4-2 21t2 23q2 7 2 14 0 8-1 14v6h-1v5h-1l-1 1-1-1-1-1v-1l1-3 1-2v-20q-2-3-3-5-2-3-6-5t-9-3-10 1l-5 2v1h-1v1h-1v1h-1v2h-1v1h-1v-5l1-1 1-1v-1q0-1 2-4 2-2 2-23t-1-21q-1-1-1-2t-1-5l-1-4 1-3 1-2v5q1 5 10 6t16 1 8-4q2-4 2-10v-10z" fill="#a5a29d" stroke="#a5a29d"/>
  <path d="m482 487l5 5q5 4 5 5t6 6 9 6l3 1h7v1h-15q-7-1-13-8l-5-8h-1v-1q-1 0-2-2l-1-3v-1h2v-1z" fill="#62708a" stroke="#62708a"/>
  <path d="m666 502h1l-5 7q-6 7-6 13-2 6 0 61 0 55 1 57v4l-1 1v3l1 2v1h1l1 1h1v1q2 1 2 2v1h-3q-3 0-3 3v3q0 1-1 2-1 0-5 4-5 4-5 5t-1 1q-2 1-10 3-9 2-9 3t-9 4l-10 2-1 1-1 1h-1v1h-1v1h-1v1h-1v1l-1 1v2q0 1-1 1h-8l-2 1h-1v-1h1v-1h4v-1q0-2 2-12 0-11 1-36v-28q-1-3-3-8-2-4-2-6 0-1 1-8t1-21 1-33q0-20-2-21l-3-1-2-1-2-1h22q14 2 18 0 5 0 15-1t15-4 6-4v-1h1l2-3q2-3 3-3z" fill="#77746a" stroke="#77746a"/>
  <path d="m659 656 2-1q0 1 1 1l7 4q7 5 7 6l1 4v5l-1 3-2 4v-1q0-1-3-1l-3 2h-1l-1 1-1 1h-6v-1h-1v-1h1v-1q1 0 1-4l2-4h-1q0 1-1 1-1-1-2 0h-2v-3q0-3-1-5v-2q1-1 1-2v-3q0-3 3-3z" fill="#5e3635" stroke="#5e3635"/>
  <path d="m512 197 1-3h1q1 0 2 1t8 11q7 8 10 10 2 2 9 3h7v1h-2l-4 1-3 1h-2q-2 0-3 1h-2l-1 1h-4q-1 0-6-4l-8-8q-4-4-4-5v-1q1 0 1-3v-6z" fill="#48597a" stroke="#48597a"/>
  <path d="m550 219h2l6 1q7 1 8 16 1 14 0 17-2 2-2 12v10h1v1q-1 2-1 7v5l-1 2-1 3 1 4q1 4 1 5t1 2q1 0 1 21t-2 23q-2 3-2 4v1l-1 1-1 1v5l-2 23q-2 23 1 24 2 1 3 2h2v1h4v1l2 1q1 0 2 7v12q0 5-3 8t-5 3h-2l-2 1-3 1h-2v1h-7q-6-1-11-1l-5-1h-2q-1-1-2-1-1-2-8-2h-8l-2-1q-2-1-3 0h-1l-1-1q-1-1-1-6t12-90q10-84 12-85t2-4q2-3 0-3-1-1-1-8-1-7 1-10 0-4 2-5l1-1h1v-1h1v-1h1v-1q1-1 3-1h2l3-1 4-1h2v-1z" fill="#c7c6c3" stroke="#c7c6c3"/>
  <path d="m591 81l1 3q1 2 13 4t22 7q11 5 11 6v6q0 5-2 6t-9 1q-7-2-15-4-9-2-21-2h-21v1h-3q-3 1-5 1-3 0-6 2l-2 2h-2q-3 0-4 1l-1 1h-5v-2h-2v-5l1-1h1v-1h1v-1h1l2-2q2-2 2 0 0 1 4-1l8-2q3-1 5-1h2v-1h1v-1l-1-2q-1-2-2-2-1-1-1-2v-1l1-1h1l9-2q9-2 10-3h1v-3h2q2 1 2 0t1-1z" fill="#2a2b2d" stroke="#2a2b2d"/>
  <path d="m595 218-1-2 6 1q7 1 17 5 10 2 13 3 4 1 6 1h2l2 1 3 1h3v-1h1v-1h1l2-2q3-2 4-2l-4 4q-4 3-2 88t4 100q0 15 1 24l1 9v1l1 1v1h-2v-1h-1v-1h-1l-3-2h-8l-5 1h-6q-6-1-13 0l-8 1h-6q-7 0-17-2h-10v-1h7q7-1 8-1 2 0 4-6t4-15 3-23v-20q1-6 1-14 0-7-2-14-2-6-2-23t2-21q0-3 1-13l1-10v-17q0-10-2-17t-2-19-1-12-2-2z" fill="#767267" stroke="#767267"/>
  <path d="m600 273v13q0 6-2 10-1 4-8 4t-16-1-10-6v-10q0-5 1-7v-6l1-4 2-6q2-5 4-7 2-1 10-1 9 0 13 3 3 4 5 11v7z" fill="#202f53" stroke="#202f53"/>
 </g>
</svg>
